<svg width="24" height="25" viewBox="0 0 24 25" fill="none" xmlns="http://www.w3.org/2000/svg">
<path d="M23.9607 13.449C23.9421 13.8756 23.8994 14.3128 23.7955 14.7314C23.7581 15.1259 23.6435 15.5125 23.5369 15.8964C23.4142 16.363 23.2383 16.8162 23.0596 17.2694C22.897 17.6453 22.7157 18.0106 22.5264 18.3758C22.3425 18.6984 22.1505 19.0157 21.9426 19.3223C21.7133 19.6582 21.468 19.9808 21.2094 20.2927C20.9402 20.6073 20.6656 20.9192 20.367 21.2018C19.9804 21.5777 19.5672 21.927 19.1353 22.2469C18.7647 22.5215 18.3781 22.7801 17.9729 23.004C17.5197 23.2733 17.0424 23.4946 16.5599 23.7025C16.0453 23.9131 15.5175 24.0838 14.9789 24.2277C14.5124 24.3317 14.0432 24.449 13.566 24.4863C12.6782 24.6223 11.7691 24.625 10.876 24.5397C10.0708 24.4783 9.27101 24.305 8.4952 24.0758L8.49254 24.0624C4.75745 22.9747 1.68887 19.8981 0.553147 16.1817C0.305207 15.3819 0.129246 14.5501 0.0652614 13.713C-0.0280491 12.8998 0.017278 12.0814 0.011946 11.2656C0.00661396 10.6151 0.00661135 9.95922 0.00927737 9.30605C0.00661135 8.63688 0.00661135 7.96504 0.00927737 7.29321C0.00661135 6.71735 0.00660875 6.14148 0.00660875 5.56562C0.00927476 4.98709 0.00394534 4.40857 0.00927737 3.83271C0.00127932 3.26218 0.00660875 2.68899 0.00660875 2.11847C-0.0333815 1.68657 0.107922 1.23869 0.435841 0.94543C0.779757 0.633506 1.28897 0.516191 1.72886 0.668154C1.99546 0.758798 2.22474 0.921428 2.46201 1.07072C3.3258 1.63325 4.15493 2.24377 4.97606 2.86495C5.06404 2.81696 5.14935 2.76364 5.232 2.70232C5.55992 2.47038 5.90383 2.25977 6.25575 2.07048C6.61299 1.87319 6.9809 1.69991 7.35414 1.53995C7.74871 1.37465 8.15129 1.23335 8.55919 1.10538C8.99375 0.985413 9.43097 0.86277 9.87886 0.798786C10.3667 0.702809 10.8653 0.641501 11.3612 0.625505C11.9717 0.585514 12.5875 0.601501 13.1954 0.665485C13.6566 0.708141 14.1205 0.77746 14.571 0.8841C17.6556 1.53194 20.4283 3.48347 22.1185 6.13882C22.8677 7.31187 23.4169 8.61288 23.7128 9.97255C23.8274 10.4764 23.9154 10.9883 23.9448 11.5028C24.0141 12.1533 24.0167 12.8065 23.9607 13.449Z" fill="url(#paint0_linear_664_466)"/>
<path d="M16.6479 6.86931C17.1358 6.73068 17.661 6.74401 18.1435 6.9013C18.7594 7.13591 19.2552 7.62112 19.5245 8.21831C19.7245 8.76751 19.7484 9.38069 19.5458 9.93256C19.3992 10.3218 19.1433 10.655 18.8393 10.935C18.5727 11.1989 18.3061 11.4628 18.0422 11.7294C17.7596 12.012 17.4743 12.2946 17.1944 12.5772C16.9225 12.8492 16.6505 13.1158 16.3813 13.3877C16.0853 13.6836 15.7894 13.9796 15.4935 14.2755C15.1576 14.6114 14.819 14.9473 14.4857 15.2832C14.1685 15.6032 13.8486 15.9178 13.5313 16.2377C13.2114 16.5603 12.8888 16.8775 12.5689 17.2001C12.2756 17.4854 12.0037 17.8 11.6731 18.0426C11.2572 18.3038 10.772 18.4318 10.2814 18.4265C9.71623 18.3891 9.15903 18.1652 8.7538 17.768C7.49811 16.5123 6.24242 15.2566 4.98673 14.0009C4.68014 13.697 4.47485 13.3024 4.36288 12.8865C4.24824 12.3133 4.31489 11.6975 4.61082 11.1883C4.83477 10.791 5.18135 10.4764 5.57592 10.2525C6.00781 10.0499 6.49036 9.96455 6.96491 10.0179C7.47678 10.0952 7.97266 10.3298 8.32991 10.7084C9.00974 11.3909 9.68958 12.0734 10.3747 12.7532C10.5827 12.5559 10.78 12.3506 10.9799 12.148C11.2679 11.8707 11.5505 11.5882 11.8251 11.3002C12.097 11.0443 12.3609 10.7777 12.6195 10.5058C12.8061 10.3405 12.9741 10.1565 13.1501 9.98321C13.438 9.70328 13.7206 9.41801 14.0005 9.13008C14.2698 8.86881 14.5311 8.60222 14.795 8.33829C15.0776 8.06369 15.3549 7.77842 15.6348 7.50115C15.9174 7.21589 16.2666 6.99461 16.6479 6.86931Z" fill="white"/>
<defs>
<linearGradient id="paint0_linear_664_466" x1="18.922" y1="2.55433" x2="1.95738" y2="19.5189" gradientUnits="userSpaceOnUse">
<stop stop-color="#4CEBB4"/>
<stop offset="1" stop-color="#2E2E74"/>
</linearGradient>
</defs>
</svg>
