<svg width="24" height="25" viewBox="0 0 24 25" fill="none" xmlns="http://www.w3.org/2000/svg">
<path d="M23.9797 18.7774C23.9736 18.8448 23.9654 18.9123 23.9532 18.9797C23.4628 22.0198 21.2788 24.2365 18.2713 24.7984C18.1569 24.8209 18.0486 24.8862 17.9383 24.9291H6.09047C5.92498 24.8801 5.76357 24.8127 5.59604 24.7841C2.5355 24.2611 0.0817506 21.5254 0.0347596 18.4444C-0.0224467 14.7056 0.00819854 10.9667 0.00819854 7.22787C0.00819854 6.77635 0.014328 6.31256 0.104224 5.8733C0.751882 2.73717 3.09122 0.651169 6.24778 0.324276C6.51951 0.295673 6.79941 0.281377 7.0834 0.279334C10.334 0.262989 13.5825 0.273205 16.833 0.279334C17.1905 0.279334 17.5542 0.285457 17.9097 0.324276C18.0037 0.334491 18.0977 0.34675 18.1896 0.363095C21.1582 0.867737 23.4015 2.98846 23.8592 5.97341C23.9225 6.38203 23.9572 6.79677 23.9777 7.21152C24.0185 8.07166 23.9879 8.94405 23.9777 9.81032C23.9736 10.0637 23.9736 10.3191 23.9756 10.5724C23.9777 10.6868 23.8755 10.8278 23.7836 10.9156C22.5679 12.0904 21.3687 13.2856 20.1162 14.4216C19.0457 15.392 17.969 16.3748 16.7881 17.2002C15.3538 18.2013 13.6989 18.4771 11.9848 18.0399C11.5128 17.9193 11.3248 18.0746 11.2288 18.4689C11.0674 19.1227 10.9285 19.7847 10.7732 20.4671C10.7181 20.4671 10.6302 20.4834 10.5505 20.465C9.08358 20.1156 7.68202 18.5077 7.60439 17.004C7.57987 16.5423 7.42664 16.2379 7.09771 15.9314C6.22122 15.1183 5.83303 14.1049 6.01691 12.9056C6.14358 12.07 6.53586 11.3488 7.07727 10.7174C8.86906 8.62533 11.1594 7.45873 13.8971 7.27076C15.3885 7.16657 16.737 7.5997 17.6911 8.86641C18.0834 9.38536 18.0568 9.73881 17.6032 10.2087C17.4704 10.3456 17.3233 10.4784 17.164 10.5806C15.5949 11.5755 13.8787 12.0291 12.0297 11.8779C10.765 11.7737 10.289 11.1833 10.3094 9.92474C10.3115 9.82872 10.2849 9.73269 10.2645 9.57333C9.47994 9.85936 9.01616 10.3967 8.70561 11.0811C8.20914 12.1721 8.52786 13.114 9.31854 13.9088C7.8373 16.0846 8.30312 18.7897 10.287 19.4598C10.4851 16.8774 12.3198 15.721 14.3833 14.7648C15.0494 14.4563 15.7032 14.1274 16.3754 13.8332C18.5962 12.8627 19.8241 11.1874 20.0161 8.76426C20.2061 6.35138 19.3685 4.14894 17.0332 3.02524C15.315 2.19983 13.5539 2.25908 11.7968 2.9333C6.31316 5.03563 2.61926 11.7186 3.33639 16.7854C3.61016 18.7161 4.43761 20.3404 6.03326 21.5192C9.21026 23.8647 13.6254 23.6359 16.8473 20.9717C18.4389 19.6559 19.6729 18.0276 20.8926 16.385C21.5995 15.4309 22.3187 14.4849 23.0542 13.5553C23.2912 13.255 23.6017 13.0139 23.9797 12.6502C23.9818 12.6482 23.9838 12.6461 23.9858 12.6441C23.9858 14.348 23.9879 15.8824 23.9858 17.4147C23.9838 17.8642 24.0226 18.3279 23.9797 18.7774Z" fill="#F15A24"/>
</svg>
