<svg width="24" height="29" viewBox="0 0 24 29" fill="none" xmlns="http://www.w3.org/2000/svg">
<path d="M24 12.1995C24 5.57342 18.6287 0.199463 12 0.199463C5.37396 0.199463 0 5.57079 0 12.1995C0 18.8255 5.37133 24.1995 12 24.1995V29L20.3385 20.8299C22.5954 18.6466 24 15.5875 24 12.1995Z" fill="url(#paint0_linear_664_469)"/>
<g opacity="0.5">
<path d="M4.80054 12.1994C4.80054 16.1766 8.02281 19.3989 12 19.3989C15.9772 19.3989 19.1995 16.1766 19.1995 12.1994C19.1995 8.22222 15.9772 4.99995 12 4.99995V2.11963L6.99694 7.02275C5.6449 8.3327 4.80054 10.1687 4.80054 12.1994Z" fill="white"/>
</g>
<g opacity="0.5">
<path d="M6 13.3989C6 16.7133 8.68566 19.3989 12 19.3989C15.3143 19.3989 18 16.7133 18 13.3989C18 10.0846 15.3143 7.39895 12 7.39895V5L7.83078 9.08504C6.70233 10.1767 6 11.7076 6 13.3989Z" fill="white"/>
</g>
<path d="M6.99951 14.3984C6.99951 17.1604 9.23801 19.3989 12 19.3989C14.7619 19.3989 17.0004 17.1604 17.0004 14.3984C17.0004 11.6365 14.7619 9.39799 12 9.39799V7.39624L8.52517 10.8026C7.58348 11.7128 6.99951 12.9859 6.99951 14.3984Z" fill="white"/>
<defs>
<linearGradient id="paint0_linear_664_469" x1="4.97137" y1="3.76514" x2="19.9424" y2="21.7304" gradientUnits="userSpaceOnUse">
<stop stop-color="#C4D838"/>
<stop offset="0.1717" stop-color="#C0D739"/>
<stop offset="0.3505" stop-color="#B3D33A"/>
<stop offset="0.5327" stop-color="#9ECE3D"/>
<stop offset="0.7171" stop-color="#81C641"/>
<stop offset="0.9015" stop-color="#5CBB46"/>
<stop offset="1" stop-color="#45B549"/>
</linearGradient>
</defs>
</svg>
