<svg width="24" height="28" viewBox="0 0 24 28" fill="none" xmlns="http://www.w3.org/2000/svg">
<path d="M17.9989 10.1365V17.0629L12 20.5262V13.5997L17.9989 10.1365Z" fill="#EFEEEF"/>
<path d="M12 13.5997V20.5262L6.0011 17.0629V10.1365L12 13.5997Z" fill="#E3E3E3"/>
<path d="M17.999 10.1365L12 13.5997L6.0011 10.1365L12 6.67114L17.999 10.1365Z" fill="#FDFDFD"/>
<path d="M24 7.59633V13.5995L18.0011 10.1363L23.7853 6.79761C23.9227 7.03379 24 7.30862 24 7.59633Z" fill="#7A4587"/>
<path d="M24 13.5996V19.6028C24 19.8884 23.9249 20.1632 23.7853 20.4037L18.0011 17.065L24 13.5996Z" fill="#E54D52"/>
<path d="M23.9978 13.5997L17.9989 17.0629V10.1365L23.9978 13.5997Z" fill="#4D3884"/>
<path d="M12 20.526L17.9989 17.0627V23.9914L12 20.526Z" fill="#F4A926"/>
<path d="M17.9989 3.20776V10.1364L12 6.671L17.9989 3.20776Z" fill="#38AD9C"/>
<path d="M17.9989 3.20778L12 6.67101V-0.00854492C12.2727 -0.00854492 12.5454 0.0601683 12.7901 0.199728C12.7923 0.201875 12.7966 0.204015 12.8009 0.206163L17.9989 3.20778Z" fill="#7EB427"/>
<path d="M17.9989 23.9915L12.7987 26.9931C12.7836 27.0017 12.7665 27.0103 12.7514 27.0189C12.5152 27.1434 12.2555 27.2078 11.9978 27.2078V20.5261L17.9989 23.9915Z" fill="#B8CD06"/>
<path d="M23.7853 6.79552L18.0011 10.1342V3.20776L23.2013 6.20937C23.4461 6.35322 23.6458 6.55719 23.7853 6.79552Z" fill="#5BD5BD"/>
<path d="M23.7853 20.4015C23.6479 20.6398 23.446 20.8437 23.1991 20.9876L17.9989 23.9914V17.0627L23.7853 20.4015Z" fill="#EE7617"/>
<path d="M6.00112 17.0628L0.216905 20.4015C0.079492 20.1632 0.00219727 19.8883 0.00219727 19.6006V13.5974L6.00112 17.0628Z" fill="#4D3884"/>
<path d="M6.00112 10.1363L0.00219727 13.5995V7.59628C0.00219727 7.31072 0.0773449 7.03588 0.216905 6.79541L6.00112 10.1363Z" fill="#E54D52"/>
<path d="M0 13.5997L6.00108 10.1365V17.0629L0 13.5997Z" fill="#7A4587"/>
<path d="M12 6.671L6.0011 10.1364V3.20776L12 6.671Z" fill="#F4A926"/>
<path d="M6.0011 23.9914V17.0627L12 20.526L6.0011 23.9914Z" fill="#38AD9C"/>
<path d="M12 20.5261V27.2078C11.7423 27.2078 11.4825 27.1456 11.2464 27.0189C11.2313 27.0103 11.2141 27.0017 11.1991 26.9931L5.9989 23.9915L12 20.5261Z" fill="#7EB427"/>
<path d="M12 -0.00854492V6.67101L6.0011 3.20778L11.2013 0.206163C11.2035 0.204015 11.2078 0.201875 11.212 0.199728C11.4547 0.0601683 11.7273 -0.00854492 12 -0.00854492Z" fill="#B8CD06"/>
<path d="M6.00109 17.0627V23.9914L0.800875 20.9876C0.553962 20.8459 0.354282 20.6419 0.214722 20.4015L6.00109 17.0627Z" fill="#5BD5BD"/>
<path d="M6.00102 3.20776V10.1342L0.216797 6.79552C0.35421 6.55719 0.556037 6.35322 0.802951 6.20937L6.00102 3.20776Z" fill="#EE7617"/>
</svg>
